<?xml version="1.0" encoding="utf-8"?>
<!-- Generator: Adobe Illustrator 22.0.1, SVG Export Plug-In . SVG Version: 6.00 Build 0)  -->
<svg version="1.1" id="Layer_1" xmlns="http://www.w3.org/2000/svg" xmlns:xlink="http://www.w3.org/1999/xlink" x="0px" y="0px"
	 viewBox="0 0 111.3 16.2" style="enable-background:new 0 0 111.3 16.2;" xml:space="preserve">
<style type="text/css">
	.st0{fill:none;}
	.st1{enable-background:new    ;}
	.st2{fill:#FFFFFF;}
	.st3{fill:none;stroke:#FFFFFF;stroke-width:0.25;stroke-miterlimit:10;}
	.st4{fill:none;stroke:#FFFFFF;stroke-width:0.15;stroke-miterlimit:10;}
</style>
<rect y="0.4" class="st0" width="45.7" height="15.8"/>
<g class="st1">
	<path class="st2" d="M7.1,0.2c0.4,0,0.9,0,1.4,0.1c0.5,0,0.9,0.1,1.4,0.2c0.5,0.1,0.9,0.2,1.4,0.3c0.4,0.1,0.8,0.2,1.1,0.4l-1.5,4
		c-0.5-0.6-1-1.1-1.5-1.4C8.8,3.5,8.3,3.3,7.7,3.3c-0.4,0-0.6,0.1-0.8,0.2S6.7,3.8,6.7,4s0.2,0.4,0.5,0.6S8,5,8.7,5.3
		c1.7,0.6,2.8,1.2,3.3,1.9c0.5,0.6,0.7,1.4,0.7,2.3c0,1.4-0.5,2.5-1.6,3.2s-2.6,1.1-4.7,1.1c-1.1,0-2.1-0.1-3.1-0.2
		s-1.9-0.4-2.9-0.8l1.4-4.4C2.2,9,2.7,9.5,3.3,9.9s1.2,0.6,1.8,0.6c0.3,0,0.5-0.1,0.7-0.2S6.1,10,6.1,9.8c0-0.3-0.1-0.5-0.4-0.7
		S5,8.7,4.5,8.5C3,8,2,7.4,1.5,6.8C1,6.2,0.8,5.5,0.8,4.6c0-1.5,0.5-2.6,1.6-3.3C3.4,0.6,5,0.2,7.1,0.2z"/>
	<path class="st2" d="M27.4,4.9c0,0.8-0.2,1.6-0.6,2.2c-0.4,0.7-0.9,1.2-1.6,1.6c-0.7,0.4-1.4,0.6-2.2,0.6c-0.5,0-1-0.1-1.5-0.3
		c-0.5-0.2-1-0.5-1.5-0.9v5.4h-5.8V0.4h8.1c0.5,0,0.9,0,1.4,0.1c0.4,0.1,0.8,0.2,1.2,0.4s0.7,0.4,1,0.7s0.6,0.6,0.8,0.9
		C27.2,3.2,27.4,4,27.4,4.9z M20,6.1c0.2,0,0.3,0.1,0.5,0.1s0.4,0,0.6-0.1s0.3-0.2,0.5-0.3c0.1-0.1,0.2-0.3,0.3-0.5S22,4.9,22,4.7
		c0-0.4-0.1-0.8-0.3-1.1c-0.2-0.3-0.6-0.4-1-0.4H20V6.1z"/>
	<path class="st2" d="M33,0.4l3,4.4l0,0V0.4h5.8v13.2h-4.4l-2.8-4.1l0,0v4h-5.8V0.4H33z"/>
</g>
<g class="st1">
	<path class="st2" d="M62.2,13.4L56.9,0h2l3.6,9.7c0.3,0.8,0.5,1.5,0.7,2.2c0.2-0.7,0.5-1.5,0.7-2.2L67.6,0h1.8L64,13.4H62.2z"/>
	<path class="st2" d="M71.4,13.4V0h1.8v13.4H71.4z"/>
	<path class="st2" d="M76.3,13.4V0h1.9l7.2,10.5V0h1.7v13.4h-1.9L78,2.9v10.5H76.3z"/>
	<path class="st2" d="M94,13.4V7.7L88.7,0h2.2l2.7,4c0.5,0.8,1,1.5,1.4,2.3c0.4-0.7,0.9-1.5,1.5-2.4L99.2,0h2.1l-5.5,7.7v5.7H94z"/>
	<path class="st2" d="M102.8,13.4V0h1.8v11.8h6.7v1.6H102.8z"/>
</g>
<circle cx="50.3" cy="7.2" r="6.1"/>
<ellipse class="st3" cx="50.3" cy="7.2" rx="5.6" ry="5.4"/>
<ellipse class="st4" cx="50.3" cy="7.1" rx="4.6" ry="4.6"/>
<circle class="st4" cx="50.3" cy="7.2" r="1.5"/>
</svg>
