<?xml version="1.0" encoding="utf-8"?>
<!-- Generator: Adobe Illustrator 22.0.1, SVG Export Plug-In . SVG Version: 6.00 Build 0)  -->
<svg version="1.1" id="Layer_1" xmlns="http://www.w3.org/2000/svg" xmlns:xlink="http://www.w3.org/1999/xlink" x="0px" y="0px"
	 viewBox="0 0 124.5 31" style="enable-background:new 0 0 124.5 31;" xml:space="preserve">
<style type="text/css">
	.st0{fill:none;stroke:#FFFFFF;stroke-miterlimit:10;}
	.st1{enable-background:new    ;}
	.st2{stroke:#FFFFFF;stroke-miterlimit:10;}
	.st3{fill:none;stroke:#FFFFFF;stroke-width:0.25;stroke-miterlimit:10;}
	.st4{fill:none;stroke:#FFFFFF;stroke-width:0.15;stroke-miterlimit:10;}
</style>
<rect x="7" y="8.2" class="st0" width="45.7" height="15.8"/>
<g class="st1">
	<path class="st2" d="M14.1,8c0.4,0,0.9,0,1.4,0.1c0.5,0,0.9,0.1,1.4,0.2c0.5,0.1,0.9,0.2,1.4,0.3c0.4,0.1,0.8,0.2,1.1,0.4l-1.5,4
		c-0.5-0.6-1-1.1-1.5-1.4c-0.6-0.3-1.1-0.5-1.7-0.5c-0.4,0-0.6,0.1-0.8,0.2s-0.2,0.3-0.2,0.5s0.2,0.4,0.5,0.6s0.8,0.4,1.5,0.7
		c1.7,0.6,2.8,1.2,3.3,1.9c0.5,0.6,0.7,1.4,0.7,2.3c0,1.4-0.5,2.5-1.6,3.2s-2.6,1.1-4.7,1.1c-1.1,0-2.1-0.1-3.1-0.2S8.4,21,7.4,20.6
		l1.4-4.4c0.4,0.6,0.9,1.1,1.5,1.5s1.2,0.6,1.8,0.6c0.3,0,0.5-0.1,0.7-0.2s0.3-0.3,0.3-0.5c0-0.3-0.1-0.5-0.4-0.7s-0.7-0.4-1.2-0.6
		c-1.5-0.5-2.5-1.1-3-1.7C8,14,7.8,13.3,7.8,12.4c0-1.5,0.5-2.6,1.6-3.3C10.4,8.4,12,8,14.1,8z"/>
	<path class="st2" d="M34.4,12.7c0,0.8-0.2,1.6-0.6,2.2c-0.4,0.7-0.9,1.2-1.6,1.6c-0.7,0.4-1.4,0.6-2.2,0.6c-0.5,0-1-0.1-1.5-0.3
		c-0.5-0.2-1-0.5-1.5-0.9v5.4h-5.8V8.2h8.1c0.5,0,0.9,0,1.4,0.1c0.4,0.1,0.8,0.2,1.2,0.4s0.7,0.4,1,0.7s0.6,0.6,0.8,0.9
		C34.2,11,34.4,11.8,34.4,12.7z M27,13.9c0.2,0,0.3,0.1,0.5,0.1s0.4,0,0.6-0.1s0.3-0.2,0.5-0.3c0.1-0.1,0.2-0.3,0.3-0.5
		s0.1-0.4,0.1-0.6c0-0.4-0.1-0.8-0.3-1.1c-0.2-0.3-0.6-0.4-1-0.4H27V13.9z"/>
	<path class="st2" d="M40,8.2l3,4.4l0,0V8.2h5.8v13.2h-4.4l-2.8-4.1l0,0v4h-5.8V8.2H40z"/>
</g>
<g class="st1">
	<path class="st2" d="M69.2,21.2L63.9,7.8h2l3.6,9.7c0.3,0.8,0.5,1.5,0.7,2.2c0.2-0.7,0.5-1.5,0.7-2.2l3.7-9.7h1.8L71,21.2H69.2z"/>
	<path class="st2" d="M78.4,21.2V7.8h1.8v13.4H78.4z"/>
	<path class="st2" d="M83.3,21.2V7.8h1.9l7.2,10.5V7.8h1.7v13.4h-1.9L85,10.7v10.5H83.3z"/>
	<path class="st2" d="M101,21.2v-5.7l-5.3-7.7h2.2l2.7,4c0.5,0.8,1,1.5,1.4,2.3c0.4-0.7,0.9-1.5,1.5-2.4l2.7-3.9h2.1l-5.5,7.7v5.7
		H101z"/>
	<path class="st2" d="M109.8,21.2V7.8h1.8v11.8h6.7v1.6H109.8z"/>
</g>
<circle class="st2" cx="57.3" cy="15" r="6.1"/>
<ellipse class="st3" cx="57.3" cy="15" rx="5.6" ry="5.4"/>
<ellipse class="st4" cx="57.3" cy="14.9" rx="4.6" ry="4.6"/>
<circle class="st4" cx="57.3" cy="15" r="1.5"/>
</svg>
