<?xml version="1.0" encoding="utf-8"?>
<!-- Generator: Adobe Illustrator 22.0.1, SVG Export Plug-In . SVG Version: 6.00 Build 0)  -->
<svg version="1.1" id="Layer_1" xmlns="http://www.w3.org/2000/svg" xmlns:xlink="http://www.w3.org/1999/xlink" x="0px" y="0px"
	 viewBox="0 0 792 216" style="enable-background:new 0 0 792 216;" xml:space="preserve">
<style type="text/css">
	.st0{fill:#F1F2F2;}
	.st1{fill:none;}
	.st2{fill:none;stroke:#00A651;stroke-width:0.5;stroke-miterlimit:10;}
	.st3{fill:#FFFFFF;stroke:#00A651;stroke-width:0.75;stroke-miterlimit:10;}
	.st4{fill:none;stroke:#00A651;stroke-width:0.25;stroke-miterlimit:10;}
	.st5{fill:none;stroke:#00A651;stroke-miterlimit:10;}
	.st6{fill:none;stroke:#00A651;stroke-width:16;stroke-miterlimit:10;}
	.st7{fill:none;stroke:#FFFFFF;stroke-width:0.25;stroke-miterlimit:10;}
	.st8{fill:none;stroke:#FFFFFF;stroke-width:0.5;stroke-miterlimit:10;}
</style>
<circle class="st0" cx="87.7" cy="103.4" r="68.8"/>
<path id="SVGID_x5F_1_x5F_" class="st1" d="M115.5,104c0,14.7-12,26.7-26.7,26.7s-26.7-12-26.7-26.7s12-26.7,26.7-26.7
	S115.5,89.3,115.5,104z"/>
<text><textPath  xlink:href="#SVGID_x5F_1_x5F_" startOffset="97.3615%">
</textPath>
</text>
<circle class="st2" cx="87.9" cy="103.5" r="23.5"/>
<circle class="st2" cx="87.8" cy="103.3" r="20.8"/>
<circle class="st3" cx="88.3" cy="104.1" r="17.2"/>
<circle class="st4" cx="88.2" cy="103.8" r="15.3"/>
<circle class="st2" cx="88.2" cy="103.2" r="9.9"/>
<circle class="st5" cx="88" cy="103.4" r="3.3"/>
<circle class="st6" cx="88.1" cy="103.2" r="12.8"/>
<circle class="st7" cx="88.1" cy="103.3" r="15.3"/>
<circle class="st7" cx="88" cy="103.7" r="17.4"/>
<circle class="st7" cx="88" cy="103.6" r="19.1"/>
<circle class="st7" cx="88" cy="103.4" r="13.4"/>
<circle class="st8" cx="87.8" cy="103.3" r="11.4"/>
<circle class="st7" cx="87.9" cy="103.2" r="8.1"/>
<circle class="st0" cx="166.7" cy="104.4" r="68.8"/>
<path id="SVGID_x5F_2_x5F_" class="st1" d="M194.5,105c0,14.7-12,26.7-26.7,26.7c-14.7,0-26.7-12-26.7-26.7s12-26.7,26.7-26.7
	C182.6,78.3,194.5,90.3,194.5,105z"/>
<text><textPath  xlink:href="#SVGID_x5F_2_x5F_" startOffset="97.3615%">
</textPath>
</text>
<circle class="st2" cx="166.9" cy="104.5" r="23.5"/>
<circle class="st2" cx="166.8" cy="104.3" r="20.8"/>
<circle class="st3" cx="167.3" cy="105.1" r="17.2"/>
<circle class="st4" cx="167.2" cy="104.8" r="15.3"/>
<circle class="st2" cx="167.2" cy="104.2" r="9.9"/>
<circle class="st5" cx="167" cy="104.4" r="3.3"/>
<circle class="st6" cx="167.1" cy="104.2" r="12.8"/>
<circle class="st7" cx="167.1" cy="104.3" r="15.3"/>
<circle class="st7" cx="167" cy="104.7" r="17.4"/>
<circle class="st7" cx="167" cy="104.6" r="19.1"/>
<circle class="st7" cx="167" cy="104.4" r="13.4"/>
<circle class="st8" cx="166.8" cy="104.3" r="11.4"/>
<circle class="st7" cx="166.9" cy="104.2" r="8.1"/>
<circle class="st0" cx="243.7" cy="104.4" r="68.8"/>
<path id="SVGID_x5F_3_x5F_" class="st1" d="M271.5,105c0,14.7-12,26.7-26.7,26.7c-14.7,0-26.7-12-26.7-26.7s12-26.7,26.7-26.7
	C259.6,78.3,271.5,90.3,271.5,105z"/>
<text><textPath  xlink:href="#SVGID_x5F_3_x5F_" startOffset="97.3615%">
</textPath>
</text>
<circle class="st2" cx="243.9" cy="104.5" r="23.5"/>
<circle class="st2" cx="243.8" cy="104.3" r="20.8"/>
<circle class="st3" cx="244.3" cy="105.1" r="17.2"/>
<circle class="st4" cx="244.2" cy="104.8" r="15.3"/>
<circle class="st2" cx="244.2" cy="104.2" r="9.9"/>
<circle class="st5" cx="244" cy="104.4" r="3.3"/>
<circle class="st6" cx="244.1" cy="104.2" r="12.8"/>
<circle class="st7" cx="244.1" cy="104.3" r="15.3"/>
<circle class="st7" cx="244" cy="104.7" r="17.4"/>
<circle class="st7" cx="244" cy="104.6" r="19.1"/>
<circle class="st7" cx="244" cy="104.4" r="13.4"/>
<circle class="st8" cx="243.8" cy="104.3" r="11.4"/>
<circle class="st7" cx="243.9" cy="104.2" r="8.1"/>
<circle class="st0" cx="321.7" cy="104.4" r="68.8"/>
<path id="SVGID_x5F_4_x5F_" class="st1" d="M349.5,105c0,14.7-12,26.7-26.7,26.7c-14.7,0-26.7-12-26.7-26.7s12-26.7,26.7-26.7
	C337.6,78.3,349.5,90.3,349.5,105z"/>
<text><textPath  xlink:href="#SVGID_x5F_4_x5F_" startOffset="97.3615%">
</textPath>
</text>
<circle class="st2" cx="321.9" cy="104.5" r="23.5"/>
<circle class="st2" cx="321.8" cy="104.3" r="20.8"/>
<circle class="st3" cx="322.3" cy="105.1" r="17.2"/>
<circle class="st4" cx="322.2" cy="104.8" r="15.3"/>
<circle class="st2" cx="322.2" cy="104.2" r="9.9"/>
<circle class="st5" cx="322" cy="104.4" r="3.3"/>
<circle class="st6" cx="322.1" cy="104.2" r="12.8"/>
<circle class="st7" cx="322.1" cy="104.3" r="15.3"/>
<circle class="st7" cx="322" cy="104.7" r="17.4"/>
<circle class="st7" cx="322" cy="104.6" r="19.1"/>
<circle class="st7" cx="322" cy="104.4" r="13.4"/>
<circle class="st8" cx="321.8" cy="104.3" r="11.4"/>
<circle class="st7" cx="321.9" cy="104.2" r="8.1"/>
<circle class="st0" cx="399" cy="106.9" r="68.8"/>
<path id="SVGID_x5F_5_x5F_" class="st1" d="M426.9,107.5c0,14.7-12,26.7-26.7,26.7c-14.7,0-26.7-12-26.7-26.7s12-26.7,26.7-26.7
	C414.9,80.8,426.9,92.7,426.9,107.5z"/>
<text><textPath  xlink:href="#SVGID_x5F_5_x5F_" startOffset="97.3615%">
</textPath>
</text>
<circle class="st2" cx="399.2" cy="107" r="23.5"/>
<circle class="st2" cx="399.1" cy="106.8" r="20.8"/>
<circle class="st3" cx="399.7" cy="107.6" r="17.2"/>
<circle class="st4" cx="399.5" cy="107.3" r="15.3"/>
<circle class="st2" cx="399.5" cy="106.7" r="9.9"/>
<circle class="st5" cx="399.3" cy="106.9" r="3.3"/>
<circle class="st6" cx="399.4" cy="106.7" r="12.8"/>
<circle class="st7" cx="399.5" cy="106.8" r="15.3"/>
<circle class="st7" cx="399.4" cy="107.2" r="17.4"/>
<circle class="st7" cx="399.4" cy="107.1" r="19.1"/>
<circle class="st7" cx="399.4" cy="106.9" r="13.4"/>
<circle class="st8" cx="399.1" cy="106.8" r="11.4"/>
<circle class="st7" cx="399.2" cy="106.7" r="8.1"/>
<circle class="st0" cx="478" cy="107.9" r="68.8"/>
<path id="SVGID_x5F_6_x5F_" class="st1" d="M505.9,108.5c0,14.7-12,26.7-26.7,26.7c-14.7,0-26.7-12-26.7-26.7s12-26.7,26.7-26.7
	C493.9,81.8,505.9,93.7,505.9,108.5z"/>
<text><textPath  xlink:href="#SVGID_x5F_6_x5F_" startOffset="97.3615%">
</textPath>
</text>
<circle class="st2" cx="478.2" cy="108" r="23.5"/>
<circle class="st2" cx="478.1" cy="107.8" r="20.8"/>
<circle class="st3" cx="478.7" cy="108.6" r="17.2"/>
<circle class="st4" cx="478.5" cy="108.3" r="15.3"/>
<circle class="st2" cx="478.5" cy="107.7" r="9.9"/>
<circle class="st5" cx="478.3" cy="107.9" r="3.3"/>
<circle class="st6" cx="478.4" cy="107.7" r="12.8"/>
<circle class="st7" cx="478.5" cy="107.8" r="15.3"/>
<circle class="st7" cx="478.4" cy="108.2" r="17.4"/>
<circle class="st7" cx="478.4" cy="108.1" r="19.1"/>
<circle class="st7" cx="478.4" cy="107.9" r="13.4"/>
<circle class="st8" cx="478.1" cy="107.8" r="11.4"/>
<circle class="st7" cx="478.2" cy="107.7" r="8.1"/>
<circle class="st0" cx="555" cy="107.9" r="68.8"/>
<path id="SVGID_x5F_7_x5F_" class="st1" d="M582.9,108.5c0,14.7-12,26.7-26.7,26.7c-14.7,0-26.7-12-26.7-26.7s12-26.7,26.7-26.7
	C570.9,81.8,582.9,93.7,582.9,108.5z"/>
<text><textPath  xlink:href="#SVGID_x5F_7_x5F_" startOffset="97.3615%">
</textPath>
</text>
<circle class="st2" cx="555.2" cy="108" r="23.5"/>
<circle class="st2" cx="555.1" cy="107.8" r="20.8"/>
<circle class="st3" cx="555.7" cy="108.6" r="17.2"/>
<circle class="st4" cx="555.5" cy="108.3" r="15.3"/>
<circle class="st2" cx="555.5" cy="107.7" r="9.9"/>
<circle class="st5" cx="555.3" cy="107.9" r="3.3"/>
<circle class="st6" cx="555.4" cy="107.7" r="12.8"/>
<circle class="st7" cx="555.5" cy="107.8" r="15.3"/>
<circle class="st7" cx="555.4" cy="108.2" r="17.4"/>
<circle class="st7" cx="555.4" cy="108.1" r="19.1"/>
<circle class="st7" cx="555.4" cy="107.9" r="13.4"/>
<circle class="st8" cx="555.1" cy="107.8" r="11.4"/>
<circle class="st7" cx="555.2" cy="107.7" r="8.1"/>
<circle class="st0" cx="633" cy="107.9" r="68.8"/>
<path id="SVGID_x5F_8_x5F_" class="st1" d="M660.9,108.5c0,14.7-12,26.7-26.7,26.7c-14.7,0-26.7-12-26.7-26.7s12-26.7,26.7-26.7
	C648.9,81.8,660.9,93.7,660.9,108.5z"/>
<text><textPath  xlink:href="#SVGID_x5F_8_x5F_" startOffset="97.3615%">
</textPath>
</text>
<circle class="st2" cx="633.2" cy="108" r="23.5"/>
<circle class="st2" cx="633.1" cy="107.8" r="20.8"/>
<circle class="st3" cx="633.7" cy="108.6" r="17.2"/>
<circle class="st4" cx="633.5" cy="108.3" r="15.3"/>
<circle class="st2" cx="633.5" cy="107.7" r="9.9"/>
<circle class="st5" cx="633.3" cy="107.9" r="3.3"/>
<circle class="st6" cx="633.4" cy="107.7" r="12.8"/>
<circle class="st7" cx="633.5" cy="107.8" r="15.3"/>
<circle class="st7" cx="633.4" cy="108.2" r="17.4"/>
<circle class="st7" cx="633.4" cy="108.1" r="19.1"/>
<circle class="st7" cx="633.4" cy="107.9" r="13.4"/>
<circle class="st8" cx="633.1" cy="107.8" r="11.4"/>
<circle class="st7" cx="633.2" cy="107.7" r="8.1"/>
</svg>
