<?xml version="1.0" encoding="utf-8"?>
<!-- Generator: Adobe Illustrator 22.0.1, SVG Export Plug-In . SVG Version: 6.00 Build 0)  -->
<svg version="1.1" id="Layer_1" xmlns="http://www.w3.org/2000/svg" xmlns:xlink="http://www.w3.org/1999/xlink" x="0px" y="0px"
	 viewBox="0 0 216 216" style="enable-background:new 0 0 216 216;" xml:space="preserve">
<style type="text/css">
	.st0{fill:none;}
	.st1{fill:none;stroke:#00A651;stroke-width:0.5;stroke-miterlimit:10;}
	.st2{fill:#FFFFFF;stroke:#00A651;stroke-width:0.75;stroke-miterlimit:10;}
	.st3{fill:none;stroke:#00A651;stroke-width:0.25;stroke-miterlimit:10;}
	.st4{fill:none;stroke:#00A651;stroke-miterlimit:10;}
	.st5{fill:none;stroke:#00A651;stroke-width:16;stroke-miterlimit:10;}
	.st6{fill:none;stroke:#FFFFFF;stroke-width:0.25;stroke-miterlimit:10;}
	.st7{fill:none;stroke:#FFFFFF;stroke-width:0.5;stroke-miterlimit:10;}
</style>
<path id="SVGID_x5F_1_x5F_" class="st0" d="M131.6,97.5c0,14.7-12,26.7-26.7,26.7s-26.7-12-26.7-26.7s12-26.7,26.7-26.7
	S131.6,82.8,131.6,97.5z"/>
<text><textPath  xlink:href="#SVGID_x5F_1_x5F_" startOffset="97.3615%">
</textPath>
</text>
<path id="SVGID_x5F_2_x5F_" class="st0" d="M81.8,78.7c10.4-12.7,29.1-14.5,41.7-4.1s14.5,29.1,4.1,41.7
	c-10.4,12.7-29.1,14.5-41.7,4.1S71.4,91.4,81.8,78.7z"/>
<text><textPath  xlink:href="#SVGID_x5F_2_x5F_" startOffset="130.8594%">
<tspan  style="font-family:'Ubuntu-Bold'; font-size:30px;">ROCK &amp; POP</tspan></textPath>
</text>
<circle class="st1" cx="104" cy="97" r="23.5"/>
<circle class="st1" cx="103.9" cy="96.9" r="20.8"/>
<circle class="st2" cx="104.4" cy="97.7" r="17.2"/>
<circle class="st3" cx="104.3" cy="97.3" r="15.3"/>
<circle class="st1" cx="104.3" cy="96.7" r="9.9"/>
<circle class="st4" cx="104" cy="97" r="3.3"/>
<circle class="st5" cx="104.2" cy="96.7" r="12.8"/>
<circle class="st6" cx="104.2" cy="96.8" r="15.3"/>
<circle class="st6" cx="104.1" cy="97.2" r="17.4"/>
<circle class="st6" cx="104.1" cy="97.2" r="19.1"/>
<circle class="st6" cx="104.1" cy="97" r="13.4"/>
<circle class="st7" cx="103.8" cy="96.9" r="11.4"/>
<circle class="st6" cx="104" cy="96.7" r="8.1"/>
</svg>
